<svg width="34" height="34" viewBox="0 0 34 34" fill="none" xmlns="http://www.w3.org/2000/svg">
<path d="M17.746 28.7844V30.0237C17.7347 30.7145 17.4959 31.3758 17.0761 31.9016L16.8847 32.1184C16.3471 32.6722 15.6246 32.986 14.871 32.9993C14.212 32.9877 13.5769 32.7466 13.0683 32.3157L12.8574 32.1184C12.3853 31.632 12.088 30.9943 12.0136 30.3118L11.996 30.0159V28.7844H17.746Z" fill="#65758D" stroke="#65758D"/>
<path d="M19.5 5.20223L18.029 4.4976C17.9972 3.69158 17.664 2.92946 17.0992 2.37075C16.5343 1.81203 15.7816 1.5 14.9985 1.5C14.2154 1.5 13.4627 1.81203 12.8978 2.37075C12.333 2.92946 11.9998 3.69158 11.968 4.4976C6.10901 7.30575 3.88604 10.5146 3.88604 16.5326V24.5832L1.5 28.5852H28.5L26.633 25.636" stroke="#65758D" stroke-width="1.5" stroke-linecap="round" stroke-linejoin="round"/>
<path d="M25.0001 22.3611C29.2803 22.3611 32.75 18.7868 32.75 14.3776C32.75 9.9684 29.2803 6.39404 25.0001 6.39404C20.7199 6.39404 17.2501 9.9684 17.2501 14.3776C17.2501 18.7868 20.7199 22.3611 25.0001 22.3611Z" stroke="#65758D" stroke-width="1.5"/>
<path d="M22.172 11.4644L27.8288 17.2917" stroke="#65758D" stroke-width="1.5" stroke-miterlimit="10" stroke-linecap="round"/>
<path d="M27.828 11.4644L22.1712 17.2917" stroke="#65758D" stroke-width="1.5" stroke-miterlimit="10" stroke-linecap="round"/>
</svg>
