<svg width="18" height="18" viewBox="0 0 18 18" fill="none" xmlns="http://www.w3.org/2000/svg">
<path d="M7.51652 0.63477C8.87433 0.524614 10.2614 0.790239 11.4767 1.40704C12.7884 2.06563 13.8974 3.11797 14.6255 4.3918C15.2661 5.50235 15.6087 6.78125 15.6146 8.06289C15.6329 9.76524 15.0333 11.4586 13.97 12.7852C15.0032 13.8199 16.0384 14.8539 17.0724 15.8883C17.2778 16.0879 17.3693 16.3953 17.3017 16.6746C17.2337 16.9848 16.972 17.241 16.6603 17.3023C16.3864 17.3625 16.0876 17.2711 15.8927 17.0703C14.8571 16.0359 13.8232 15.0008 12.7876 13.9672C12.181 14.4508 11.5017 14.8434 10.7771 15.1203C9.62121 15.5648 8.35363 15.7106 7.12667 15.5453C5.81339 15.3734 4.55207 14.8379 3.51027 14.0207C2.3673 13.1297 1.48917 11.9023 1.0216 10.5305C0.560268 9.19024 0.495034 7.71797 0.829799 6.34102C1.1923 4.83282 2.04386 3.45 3.21847 2.43829C4.41144 1.40118 5.93996 0.755473 7.51652 0.63477ZM7.49699 2.30938C5.99464 2.45938 4.56808 3.22657 3.613 4.39532C2.81613 5.35547 2.3466 6.57969 2.2923 7.82618C2.23683 8.94922 2.51027 10.0875 3.0798 11.0578C3.70207 12.127 4.67394 12.9883 5.81222 13.4734C6.89425 13.9398 8.11808 14.0625 9.27277 13.8309C10.4986 13.5898 11.6364 12.9348 12.4661 12.0016C13.2146 11.1664 13.7126 10.1102 13.879 9.00118C14.0579 7.83828 13.8821 6.62188 13.3677 5.56289C12.7985 4.37891 11.815 3.40039 10.6271 2.83946C9.65949 2.37696 8.56261 2.19727 7.49699 2.30938Z" fill="#F76B10"/>
</svg>
