<svg width="38" height="38" viewBox="0 0 38 38" fill="none" xmlns="http://www.w3.org/2000/svg">
<path d="M19 36.3333C28.5729 36.3333 36.3333 28.5729 36.3333 19C36.3333 9.42702 28.5729 1.66663 19 1.66663C9.42702 1.66663 1.66663 9.42702 1.66663 19C1.66663 28.5729 9.42702 36.3333 19 36.3333Z" fill="#FF9334"/>
<path d="M19 37C28.9411 37 37 28.9411 37 19C37 9.05888 28.9411 1 19 1C9.05888 1 1 9.05888 1 19C1 28.9411 9.05888 37 19 37Z" stroke="#D5DAE2"/>
<path d="M25.7106 17.0886C26.0236 15.0398 24.4327 13.9382 22.2609 13.1975L22.9689 10.4281L21.2481 10.0081L20.5648 12.7104C20.1124 12.5991 19.649 12.4958 19.1857 12.3924L19.8773 9.67266L18.151 9.25L17.4472 12.0248C17.0727 11.9403 16.705 11.8584 16.3537 11.7712V11.7618L13.981 11.1808L13.5232 12.9855C13.5232 12.9855 14.8011 13.2726 14.7738 13.2901C15.0119 13.3184 15.2292 13.4373 15.3789 13.6212C15.5287 13.8051 15.599 14.0394 15.5747 14.2736C14.8202 17.4469 14.7915 17.416 13.6448 21.8761C13.6201 21.9536 13.58 22.0255 13.5269 22.0878C13.4737 22.15 13.4086 22.2013 13.3351 22.2387C13.2617 22.2761 13.1815 22.2989 13.099 22.3058C13.0166 22.3126 12.9336 22.3034 12.8548 22.2786C12.8726 22.3028 11.6042 21.9727 11.6042 21.9727L10.75 23.9062L12.9901 24.455C13.4002 24.557 13.8102 24.6656 14.2202 24.7663L13.5081 27.5733L15.2275 27.9932L15.9328 25.2171C16.403 25.3419 16.8581 25.4559 17.2996 25.566L16.597 28.33L18.3178 28.75L19.0299 25.9484C21.9643 26.4931 24.1703 26.2744 25.0997 23.6674C25.29 23.2994 25.4 22.8964 25.4225 22.4843C25.445 22.0722 25.3797 21.66 25.2305 21.2741C25.0814 20.8882 24.8519 20.5371 24.5565 20.2434C24.2612 19.9497 23.9067 19.7197 23.5156 19.5682C24.1096 19.451 24.6474 19.1441 25.0449 18.6953C25.4425 18.2465 25.6776 17.681 25.7134 17.0873L25.7106 17.0886ZM21.7785 22.5014C21.2481 24.5999 17.6494 23.4648 16.4822 23.1803L17.428 19.4622C18.5952 19.748 22.3347 20.3129 21.7785 22.5V22.5014ZM22.3115 17.0591C21.8263 18.9685 18.8317 17.9984 17.8613 17.7595L18.7169 14.3877C19.6887 14.6238 22.8172 15.0679 22.3115 17.0591Z" fill="white"/>
</svg>
